<svg width="16" height="8" viewBox="0 0 16 8" fill="none" xmlns="http://www.w3.org/2000/svg">
<path d="M14.9271 4.75632C14.9269 4.75649 14.9268 4.75669 14.9266 4.75686L11.9362 7.73277C11.7122 7.9557 11.3499 7.95487 11.1269 7.73082C10.9039 7.5068 10.9048 7.14445 11.1288 6.92149L13.1365 4.92351L1.01663 4.92351C0.70055 4.92351 0.444336 4.6673 0.444336 4.35122C0.444336 4.03515 0.70055 3.77893 1.01663 3.77893L13.1365 3.77894L11.1288 1.78096C10.9048 1.558 10.904 1.19565 11.1269 0.971629C11.3499 0.747549 11.7123 0.746776 11.9363 0.969683L14.9266 3.94559C14.9268 3.94576 14.9269 3.94596 14.9271 3.94613C15.1513 4.16984 15.1505 4.53336 14.9271 4.75632Z" fill="white"/>
</svg>
