<svg width="20" height="20" viewBox="0 0 20 20" fill="none" xmlns="http://www.w3.org/2000/svg">
<g clip-path="url(#clip0_1_2298)">
<path d="M19.2311 9.99981C19.2311 15.1021 15.1019 19.2306 10.0003 19.2306C4.898 19.2306 0.769531 15.1014 0.769531 9.99981C0.769531 4.89751 4.8987 0.769043 10.0003 0.769043C15.1026 0.769043 19.2311 4.89821 19.2311 9.99981ZM17.7888 9.99981C17.7888 5.69472 14.3048 2.21135 10.0003 2.21135C5.69521 2.21135 2.21184 5.69528 2.21184 9.99981C2.21184 14.3049 5.69577 17.7883 10.0003 17.7883C14.3054 17.7883 17.7888 14.3043 17.7888 9.99981Z" fill="#212121"/>
<g clip-path="url(#clip1_1_2298)">
<path d="M6.01454 13.1469H7.48309V14.4058C7.48309 14.467 7.50269 14.5172 7.54212 14.5564C7.58144 14.5958 7.63171 14.6155 7.69294 14.6155H8.78773C8.84454 14.6155 8.89371 14.5958 8.93524 14.5564C8.97677 14.5172 8.99747 14.467 8.99747 14.4058V13.1469H12.3082C12.3693 13.1469 12.4196 13.1274 12.459 13.088C12.4985 13.0485 12.518 12.9984 12.518 12.9371V12.0979C12.518 12.037 12.4985 11.9865 12.459 11.9473C12.4197 11.9079 12.3693 11.8882 12.3082 11.8882H8.99736V11.1145H11.2264C12.1005 11.1145 12.8139 10.8482 13.3669 10.3147C13.9197 9.78186 14.1963 9.09351 14.1963 8.24964C14.1963 7.40634 13.9197 6.71797 13.3669 6.18455C12.814 5.65165 12.1004 5.38477 11.2264 5.38477H7.69283C7.63158 5.38477 7.58142 5.40447 7.54201 5.44368C7.50269 5.48311 7.48298 5.5336 7.48298 5.59451V9.71829H6.01454C5.9533 9.71829 5.90312 9.73901 5.86371 9.78052C5.82441 9.82205 5.80469 9.87121 5.80469 9.92801V10.9047C5.80469 10.966 5.82428 11.0162 5.86371 11.0556C5.90314 11.095 5.95319 11.1145 6.01454 11.1145H7.48309V11.8881H6.01454C5.9533 11.8881 5.90312 11.9079 5.86371 11.9473C5.82441 11.9865 5.80469 12.0369 5.80469 12.0979V12.9371C5.80469 12.9983 5.82428 13.0485 5.86371 13.0879C5.90312 13.1274 5.95328 13.1469 6.01454 13.1469ZM8.99736 6.78132H11.0953C11.5585 6.78132 11.9321 6.91676 12.2163 7.18774C12.5003 7.45873 12.6424 7.81287 12.6424 8.24975C12.6424 8.68686 12.5003 9.0411 12.2163 9.31177C11.9321 9.58298 11.5585 9.71842 11.0953 9.71842H8.99736V6.78132Z" fill="black"/>
</g>
</g>
<defs>
<clipPath id="clip0_1_2298">
<rect width="20" height="20" fill="white"/>
</clipPath>
<clipPath id="clip1_1_2298">
<rect width="9.23077" height="9.23077" fill="white" transform="translate(5.38477 5.38477)"/>
</clipPath>
</defs>
</svg>
