<svg width="20" height="20" viewBox="0 0 20 20" fill="none" xmlns="http://www.w3.org/2000/svg">
<g clip-path="url(#clip0_1_2285)">
<path d="M12.9548 6.96476L8.73279 11.1869L7.04571 9.49981C7.04571 9.49981 7.0457 9.4998 7.04569 9.49979C6.70556 9.15952 6.15397 9.15951 5.81383 9.49976C5.47352 9.8399 5.47351 10.3915 5.8138 10.7317C5.81381 10.7317 5.81382 10.7317 5.81383 10.7317L8.11684 13.0349L8.11687 13.0349C8.45714 13.375 9.00857 13.375 9.34885 13.0349L9.34888 13.0349L14.1868 8.19682C14.1868 8.19681 14.1868 8.1968 14.1868 8.19679C14.5271 7.85663 14.5271 7.30502 14.1868 6.96476C13.8466 6.62461 13.2951 6.62465 12.9548 6.96474L12.9548 6.96476ZM10.0003 19.3806C15.1847 19.3806 19.3811 15.185 19.3811 9.99981C19.3811 4.81538 15.1855 0.619043 10.0003 0.619043C4.81587 0.619043 0.619531 4.81466 0.619531 9.99981C0.619531 15.1842 4.81515 19.3806 10.0003 19.3806ZM10.0003 2.36135C14.222 2.36135 17.6388 5.77757 17.6388 9.99981C17.6388 14.2215 14.2225 17.6383 10.0003 17.6383C5.77861 17.6383 2.36184 14.2221 2.36184 9.99981C2.36184 5.77812 5.77806 2.36135 10.0003 2.36135Z" fill="#198580" stroke="#198580" stroke-width="0.3"/>
</g>
<defs>
<clipPath id="clip0_1_2285">
<rect width="20" height="20" fill="white"/>
</clipPath>
</defs>
</svg>
