<?xml version="1.0" encoding="utf-8"?><svg viewBox="0 0 64 64" xmlns="http://www.w3.org/2000/svg" xmlns:xlink="http://www.w3.org/1999/xlink"><style>:root>svg{display:none}:root>svg:target{display:block}</style><svg viewBox="0 0 64 64" id="arrow" xmlns="http://www.w3.org/2000/svg"><rect x=".5" y=".5" width="63" height="63" rx="31.5"/><g clip-path="url(#aa)"><path d="M39.774 23.19l-6.912.031a.938.938 0 00.008 1.875l4.64-.02L23.5 39.142a.937.937 0 101.328 1.323l14.01-14.067-.001 4.64a.937.937 0 101.875 0l.003-6.91v-.002a.938.938 0 00-.94-.936z"/></g><defs><clipPath id="aa"><path transform="rotate(-45.115 46.018 -2.055)" d="M0 0h24v24H0z"/></clipPath></defs></svg><svg viewBox="0 0 34 34" id="arrow-hero" xmlns="http://www.w3.org/2000/svg"><g clip-path="url(#ba)"><path d="M24.774 8.19l-6.912.031a.938.938 0 00.008 1.875l4.64-.02L8.5 24.142a.937.937 0 101.328 1.323l14.01-14.067-.001 4.64a.937.937 0 101.875 0l.003-6.91v-.002a.938.938 0 00-.94-.937z"/></g><defs><clipPath id="ba"><path transform="rotate(-45.115 20.463 8.5)" d="M0 0h24v24H0z"/></clipPath></defs></svg><svg viewBox="0 0 16 8" id="arrow-slide" xmlns="http://www.w3.org/2000/svg"><path d="M14.927 4.756l-2.99 2.977a.572.572 0 11-.808-.812l2.008-1.997H1.017a.572.572 0 110-1.145h12.12L11.128 1.78a.572.572 0 01.807-.811l2.99 2.976h.001a.573.573 0 010 .81z"/></svg><svg viewBox="0 0 24 23" id="facebook" xmlns="http://www.w3.org/2000/svg"><g clip-path="url(#da)"><path d="M13.62 22.955H9.77c-.644 0-1.167-.5-1.167-1.116v-8.307H6.356c-.643 0-1.167-.501-1.167-1.116v-3.56c0-.615.524-1.116 1.167-1.116h2.247V5.958c0-1.768.58-3.272 1.678-4.349C11.383.527 12.924-.045 14.737-.045l2.937.005c.642 0 1.164.501 1.164 1.115v3.306c0 .615-.523 1.115-1.166 1.115l-1.977.001c-.604 0-.757.116-.79.151-.054.059-.118.225-.118.684V7.74h2.736c.206 0 .406.049.578.14.37.198.6.572.6.976l-.002 3.56c0 .615-.523 1.115-1.166 1.115h-2.746v8.308c0 .616-.524 1.116-1.167 1.116zm-3.608-1.348h3.365v-8.679c0-.41.35-.745.778-.745h3.134l.002-3.094h-3.136c-.429 0-.778-.334-.778-.745V6.332c0-.527.056-1.126.471-1.576.503-.545 1.294-.607 1.846-.607l1.734-.001v-2.84l-2.692-.005c-2.913 0-4.724 1.784-4.724 4.655v2.386c0 .41-.349.745-.778.745H6.599v3.094h2.635c.429 0 .778.334.778.745v8.679zm7.659-20.299z"/></g><defs><clipPath id="da"><path d="M0 0h24v23H0z"/></clipPath></defs></svg><svg viewBox="0 0 19 20" id="facebook-hero" xmlns="http://www.w3.org/2000/svg"><path d="M14.31 0h-2.59C8.578 0 6.547 1.988 6.547 5.067v1.968H3.94a.43.43 0 00-.44.422v3.385c0 .233.197.42.44.42h2.606v8.318c0 .231.197.42.439.42h3.67a.431.431 0 00.442-.42v-8.32h3.211a.43.43 0 00.44-.42l.002-3.383a.415.415 0 00-.13-.296.45.45 0 00-.31-.124h-3.213V5.422c0-.95.237-1.434 1.537-1.434l1.676-.005a.43.43 0 00.439-.42V.42a.429.429 0 00-.44-.42z"/></svg><svg viewBox="0 0 23 23" id="instagram" xmlns="http://www.w3.org/2000/svg"><g clip-path="url(#fa)"><path d="M16.319 0H6.68A6.689 6.689 0 000 6.681v9.638A6.689 6.689 0 006.681 23h9.638A6.689 6.689 0 0023 16.319V6.68A6.689 6.689 0 0016.319 0zm4.884 16.319a4.89 4.89 0 01-4.884 4.884H6.68a4.89 4.89 0 01-4.884-4.884V6.68A4.89 4.89 0 016.68 1.797h9.638a4.89 4.89 0 014.884 4.884v9.638z"/><path d="M11.5 5.3c-3.418 0-6.2 2.782-6.2 6.2s2.782 6.2 6.2 6.2 6.2-2.782 6.2-6.2-2.782-6.2-6.2-6.2zm0 10.602A4.407 4.407 0 017.098 11.5 4.407 4.407 0 0111.5 7.098a4.407 4.407 0 014.402 4.402 4.407 4.407 0 01-4.402 4.402zm6.29-9.792a.898.898 0 100-1.797.898.898 0 000 1.796z"/></g><defs><clipPath id="fa"><path d="M0 0h23v23H0z"/></clipPath></defs></svg><svg viewBox="0 0 20 20" id="instagram-hero" xmlns="http://www.w3.org/2000/svg"><path d="M5.714 0h8.572A5.714 5.714 0 0120 5.714v8.572A5.714 5.714 0 0114.286 20H5.714A5.714 5.714 0 010 14.286V5.714A5.714 5.714 0 015.714 0zM10 14.286a4.286 4.286 0 100-8.572 4.286 4.286 0 000 8.572zm4.92-7.937a1.27 1.27 0 10.085-2.539 1.27 1.27 0 00-.085 2.539z"/></svg><svg viewBox="0 0 31 30" id="vk" xmlns="http://www.w3.org/2000/svg"><g clip-path="url(#ha)"><path d="M16.134 24.375c4.34 0 2.793-2.747 3.128-3.538-.005-.59-.01-1.157.01-1.502.275.078.924.406 2.264 1.709 2.068 2.087 2.597 3.331 4.268 3.331h3.077c.975 0 1.482-.404 1.736-.742.245-.328.485-.903.222-1.798-.686-2.155-4.688-5.876-4.937-6.269a3.38 3.38 0 01.129-.219h-.003c.79-1.043 3.805-5.56 4.249-7.368a.024.024 0 00.002-.01c.24-.825.02-1.36-.207-1.663-.343-.452-.888-.681-1.624-.681h-3.076c-1.03 0-1.811.519-2.206 1.465-.662 1.681-2.52 5.139-3.912 6.363a80.154 80.154 0 01.01-4.042c.044-1.918.19-3.786-1.802-3.786h-4.835c-1.248 0-2.441 1.362-1.149 2.98 1.13 1.418.406 2.207.65 6.14-.95-1.019-2.64-3.77-3.835-7.286-.335-.951-.842-1.833-2.271-1.833H2.946c-1.248 0-1.993.68-1.993 1.819 0 2.557 5.661 16.93 15.181 16.93zM6.022 7.501c.271 0 .299 0 .5.571 1.224 3.604 3.969 8.937 5.974 8.937 1.506 0 1.506-1.544 1.506-2.125L14 10.256c-.083-1.531-.64-2.293-1.007-2.756l4.385.005c.003.021-.025 5.119.013 6.354 0 1.754 1.392 2.758 3.566.559 2.294-2.59 3.88-6.46 3.944-6.617.094-.225.175-.301.47-.301h3.089l-.003.011c-.281 1.313-3.057 5.495-3.986 6.794a.993.993 0 00-.043.063c-.408.667-.74 1.405.057 2.442.073.088.262.293.537.578.855.882 3.788 3.9 4.048 5.1-.173.027-.36.007-3.267.013-.618 0-1.102-.925-2.948-2.787-1.66-1.615-2.738-2.275-3.72-2.275-1.904 0-1.765 1.546-1.748 3.416.006 2.027-.006 1.386.008 1.514-.112.044-.43.131-1.262.131C8.204 22.5 3.038 9.911 2.84 7.505c.07-.006 1.015-.002 3.183-.004z"/></g><defs><clipPath id="ha"><path transform="translate(.953)" d="M0 0h30v30H0z"/></clipPath></defs></svg></svg>